<?xml version="1.0" encoding="utf-8"?>
<!-- Generator: Adobe Illustrator 16.0.0, SVG Export Plug-In . SVG Version: 6.00 Build 0)  -->
<!DOCTYPE svg PUBLIC "-//W3C//DTD SVG 1.1//EN" "http://www.w3.org/Graphics/SVG/1.1/DTD/svg11.dtd">
<svg version="1.1" id="Layer_1" xmlns="http://www.w3.org/2000/svg" xmlns:xlink="http://www.w3.org/1999/xlink" x="0px" y="0px"
	 width="385.116px" height="113.76px" viewBox="0 0 385.116 113.76" enable-background="new 0 0 385.116 113.76"
	 xml:space="preserve">
<path fill="#FFC54F" d="M0,111.52l0.8-3.36l4.8-1.28c4.16-1.064,7.305-3.571,9.439-7.52l48.801-93.6h12.8l14.56,93.28
	c0.64,3.947,2.879,6.561,6.72,7.84l3.84,1.28l-0.8,3.36H61.92l0.64-3.36l3.04-0.96c3.732-1.173,5.385-3.732,4.96-7.68l-3.521-24.16
	H32.8L20.159,99.68c-1.707,3.734-0.694,6.135,3.041,7.199l4.16,1.28l-0.64,3.36H0z M59.68,23.359L35.2,70.72h31.2L59.68,23.359z"/>
<path fill="#FFC54F" d="M120.481,113.76c-5.015,0-9.095-1.36-12.241-4.08c-3.147-2.721-4.719-6.853-4.719-12.4
	c0-3.84,0.425-8.052,1.28-12.64c0.853-4.585,1.76-9.28,2.72-14.08l9.92-49.44c0.852-4.585-0.908-7.52-5.281-8.8l-2.719-0.96
	l0.48-2.72L139.681,0l1.439,1.28l-10.559,49.44c4.372-5.545,9.253-10,14.639-13.36s10.426-5.04,15.121-5.04
	c4.692,0,8.533,1.628,11.52,4.88c2.984,3.255,4.48,8.72,4.48,16.4c0,5.975-1.068,11.867-3.201,17.68
	c-2.134,5.815-5.04,11.28-8.719,16.4c-3.68,5.12-7.895,9.628-12.64,13.52c-4.748,3.896-9.788,6.96-15.12,9.2
	C131.306,112.64,125.921,113.76,120.481,113.76 M121.761,97.92c0,2.667,0.612,4.854,1.84,6.56c1.224,1.708,3.013,2.56,5.36,2.56
	c5.653,0,11.092-3.252,16.32-9.76c2.24-2.772,4.24-6.185,6-10.24c1.76-4.053,3.145-8.399,4.16-13.04
	c1.012-4.64,1.52-9.092,1.52-13.359c0-5.44-0.801-9.52-2.4-12.24c-1.6-2.72-3.787-4.08-6.56-4.08c-2.668,0-5.52,1.04-8.56,3.12
	c-3.04,2.08-6.268,4.988-9.68,8.72l-4,18.24c-1.28,5.868-2.268,10.695-2.96,14.48C122.106,92.667,121.761,95.68,121.761,97.92"/>
<path fill="#FFC54F" d="M205.597,113.759c-5.439,0-10.399-1.066-14.88-3.199c-4.479-2.132-8.054-5.412-10.72-9.84
	c-2.666-4.426-4-10-4-16.721c0-6.825,1.146-13.332,3.441-19.52c2.292-6.186,5.492-11.705,9.6-16.56
	c4.105-4.852,8.905-8.665,14.4-11.44c5.491-2.772,11.385-4.16,17.68-4.16c8.424,0,15.412,2.428,20.96,7.28
	c5.544,4.855,8.32,12.348,8.32,22.48c0,6.72-1.148,13.175-3.441,19.36c-2.294,6.188-5.467,11.708-9.519,16.56
	c-4.057,4.855-8.801,8.695-14.24,11.521C217.756,112.345,211.889,113.759,205.597,113.759 M207.518,109.279
	c3.411,0,6.505-1.465,9.278-4.4c2.773-2.932,5.173-6.8,7.2-11.6c2.026-4.8,3.601-10.16,4.72-16.08
	c1.12-5.92,1.682-11.812,1.682-17.68c0-8.425-0.987-14.292-2.96-17.6c-1.977-3.305-4.509-4.96-7.602-4.96
	c-3.415,0-6.587,1.415-9.519,4.24c-2.937,2.828-5.469,6.64-7.602,11.44c-2.135,4.8-3.787,10.108-4.96,15.92
	c-1.175,5.814-1.76,11.708-1.76,17.68c0,8.64,1.093,14.64,3.281,18C201.461,107.6,204.209,109.279,207.518,109.279"/>
<path fill="#FFC54F" d="M264.956,113.76c-3.52,0-6.56-1.04-9.119-3.12c-2.561-2.08-3.841-5.305-3.841-9.68
	c0-2.453,0.267-5.173,0.801-8.16c0.532-2.985,1.119-5.92,1.761-8.8l6.879-30.56c0.96-4.373-0.587-7.36-4.64-8.96l-2.721-1.12
	l0.32-2.88l28.8-8.32l1.92,1.6l-11.04,48c-0.64,2.667-1.175,5.067-1.599,7.2c-0.428,2.135-0.641,4.106-0.641,5.92
	c0,2.347,0.532,4.027,1.6,5.04c1.065,1.015,2.453,1.52,4.161,1.52c2.559,0,5.358-0.88,8.398-2.64s6.692-4.56,10.96-8.4l0.16-0.8
	l5.441-25.76c0.852-4.373,1.705-8.72,2.559-13.04s1.653-8.665,2.401-13.04l18.719-5.6l2.08,1.6l-12.479,57.12
	c-0.319,1.814-0.614,3.467-0.881,4.96c-0.268,1.495-0.398,2.72-0.398,3.68c0,1.067,0.319,1.896,0.96,2.48
	c0.639,0.587,1.332,0.88,2.08,0.88c1.492,0,3.011-0.561,4.559-1.68c1.545-1.12,3.492-2.801,5.84-5.04l2.4,2.399
	c-2.668,3.735-6,7.2-10,10.4c-4,3.199-8.56,4.8-13.68,4.8c-3.096,0-5.735-1.067-7.92-3.2c-2.188-2.133-3.279-5.225-3.279-9.28
	c0-1.6,0.104-3.305,0.319-5.119c-5.548,5.547-10.907,9.866-16.08,12.96C274.581,112.212,269.648,113.76,264.956,113.76"/>
<path fill="#FFC54F" d="M346.076,113.76c-3.309,0-6-0.828-8.08-2.48s-3.12-4.133-3.12-7.439c0-4.053,0.639-8.96,1.92-14.72
	l10.719-49.601h-13.599l0.639-3.36l6.401-0.64c5.438-0.745,9.92-3.305,13.438-7.68l12.481-15.04h4.96l-4.48,21.92h17.76l-0.96,5.12
	l-17.92-0.32l-10.56,51.2c-0.428,1.92-0.747,3.6-0.96,5.04c-0.215,1.44-0.321,2.64-0.321,3.6c0,1.067,0.321,1.92,0.961,2.561
	c0.641,0.64,1.385,0.96,2.24,0.96c2.24,0,5.652-2.293,10.24-6.88l2.559,2.08c-2.667,3.946-6.054,7.547-10.159,10.8
	C356.129,112.132,351.407,113.76,346.076,113.76"/>
</svg>
