<?xml version="1.0" encoding="utf-8"?>
<!-- Generator: Adobe Illustrator 16.0.0, SVG Export Plug-In . SVG Version: 6.00 Build 0)  -->
<!DOCTYPE svg PUBLIC "-//W3C//DTD SVG 1.1//EN" "http://www.w3.org/Graphics/SVG/1.1/DTD/svg11.dtd">
<svg version="1.1" id="Layer_1" xmlns="http://www.w3.org/2000/svg" xmlns:xlink="http://www.w3.org/1999/xlink" x="0px" y="0px"
	 width="298.1px" height="346.03px" viewBox="0 0 298.1 346.03" enable-background="new 0 0 298.1 346.03" xml:space="preserve">
<g>
	<defs>
		<path id="C" d="M282.96-0.08l7.57,112.55h-7.57c-10.09-33.69-24.5-57.94-43.21-72.76c-18.72-14.81-41.18-22.22-67.38-22.22
			c-21.97,0-41.83,5.58-59.57,16.73c-17.74,11.15-31.7,28.93-41.87,53.34c-10.17,24.41-15.26,54.77-15.26,91.06
			c0,29.95,4.8,55.91,14.4,77.88c9.6,21.97,24.05,38.82,43.33,50.54c19.29,11.72,41.3,17.58,66.04,17.58
			c21.48,0,40.44-4.6,56.89-13.79c16.44-9.19,34.5-27.47,54.2-54.81l7.57,4.88c-16.6,29.46-35.97,51.03-58.1,64.7
			c-22.14,13.67-48.42,20.51-78.86,20.51c-54.85,0-97.33-20.34-127.44-61.04C11.23,254.8,0,219.16,0,178.14
			c0-33.04,7.4-63.4,22.22-91.07c14.81-27.67,35.19-49.11,61.16-64.33c25.96-15.22,54.32-22.83,85.08-22.83
			c23.93,0,47.52,5.86,70.8,17.58c6.84,3.58,11.72,5.37,14.65,5.37c4.39,0,8.22-1.54,11.47-4.64c4.23-4.4,7.24-10.5,9.03-18.31
			L282.96-0.08L282.96-0.08z"/>
	</defs>
	<clipPath id="C_1_">
		<use xlink:href="#C"  overflow="visible"/>
	</clipPath>
	<path id="C1" clip-path="url(#C_1_)" fill="none" stroke="#F6CF7F" stroke-width="73" stroke-miterlimit="10" d="M288.05,112.47
		l-6.5-69.96c-8.5-16-13.55-23.08-83-31c-101-11.52-172,51.5-174,154s51,173,135,173s119.9-51.5,134.45-80.25"/>
</g>
</svg>
