<?xml version="1.0" encoding="utf-8"?>
<!-- Generator: Adobe Illustrator 16.0.0, SVG Export Plug-In . SVG Version: 6.00 Build 0)  -->
<!DOCTYPE svg PUBLIC "-//W3C//DTD SVG 1.1//EN" "http://www.w3.org/Graphics/SVG/1.1/DTD/svg11.dtd">
<svg version="1.1" id="Layer_1" xmlns="http://www.w3.org/2000/svg" xmlns:xlink="http://www.w3.org/1999/xlink" x="0px" y="0px"
	 width="708.796px" height="152.16px" viewBox="0 0 708.796 152.16" enable-background="new 0 0 708.796 152.16"
	 xml:space="preserve">
<path fill="#FFC54F" d="M0,113.601l0.641-3.359l2.719-0.801c3.733-1.064,6.026-3.625,6.88-7.68l8.321-44.32
	c1.064-5.653,2.16-11.733,3.28-18.24c1.119-6.504,2.212-12.745,3.279-18.72c0.745-4.372-1.015-7.305-5.279-8.8l-1.601-0.48l0.8-3.36
	h71.681l-4,27.84h-4.16l-2.88-13.12c-0.748-3.413-2.056-5.92-3.92-7.521c-1.868-1.599-4.668-2.399-8.401-2.399H47.681L39.36,56.959
	h13.6c4.585,0,8.213-1.971,10.881-5.92l4.96-7.359h3.359l-5.76,30.88h-3.36l-1.76-5.92c-1.387-4.692-4.479-7.04-9.28-7.04H38.4
	c-1.387,7.467-2.827,15.255-4.32,23.359c-1.495,8.107-2.827,16.056-4,23.841h24.8c3.306,0,6.133-0.64,8.48-1.921
	c2.345-1.279,4.533-3.465,6.56-6.559l9.601-14.561h4.16l-6.401,27.84H0z"/>
<path fill="#FFC54F" d="M86.24,114.881l-1.601-1.44L96.8,55.36c0.96-4.264-0.64-7.251-4.8-8.959l-2.401-0.96l0.321-2.72l28.32-8.48
	l1.76,1.6l-3.521,18.08c5.545-5.865,11.2-10.586,16.96-14.16c5.761-3.572,11.146-5.36,16.16-5.36c3.413,0,6.213,1.04,8.401,3.12
	c2.184,2.08,3.28,5.255,3.28,9.519c0,2.348-0.216,4.721-0.641,7.121c-0.427,2.4-0.96,4.879-1.599,7.44L150.88,94.4
	c-0.428,1.708-0.776,3.175-1.04,4.4c-0.268,1.228-0.401,2.267-0.401,3.12c0,2.24,0.905,3.359,2.721,3.359
	c2.772,0,6.292-2.24,10.559-6.72l2.241,2.24c-2.668,3.947-6.135,7.44-10.401,10.479c-4.267,3.04-9.014,4.561-14.239,4.561
	c-3.308,0-5.921-0.8-7.841-2.4c-1.92-1.6-2.88-3.785-2.88-6.561c0-2.239,0.266-4.504,0.8-6.799c0.533-2.293,1.173-4.773,1.921-7.44
	l6.239-25.281c0.853-3.199,1.545-6.08,2.08-8.639c0.534-2.56,0.8-4.853,0.8-6.88c0-2.133-0.454-3.6-1.359-4.4
	c-0.907-0.8-2.108-1.2-3.601-1.2c-2.559,0-5.627,1.094-9.199,3.28c-3.575,2.187-7.601,5.627-12.08,10.32l-4.32,19.68
	c-1.175,5.655-2.295,11.308-3.361,16.96c-1.067,5.655-2.134,11.36-3.199,17.12L86.24,114.881z"/>
<path fill="#FFC54F" d="M148.479,152.001l-0.641-3.04c2.561-1.067,4.856-2.24,6.881-3.521c2.027-1.28,3.784-3.2,5.279-5.76
	c2.026-3.2,3.84-7.468,5.441-12.8c1.599-5.335,3.2-12.428,4.8-21.28l9.44-49.919c0.744-4.585-1.016-7.733-5.28-9.44l-2.08-0.801
	l0.32-2.879l28.319-8.32l1.761,1.6l-13.761,69.76c-3.2,15.785-8.587,27.412-16.16,34.88c-2.987,3.305-6.507,5.945-10.559,7.92
	C158.186,150.373,153.599,151.573,148.479,152.001 M195.679,24.96c-2.988,0-5.521-0.959-7.601-2.879s-3.12-4.533-3.12-7.84
	c0-3.52,1.253-6.453,3.761-8.801c2.505-2.344,5.359-3.519,8.56-3.519c3.092,0,5.652,0.987,7.679,2.959
	c2.026,1.976,3.04,4.508,3.04,7.601c0,3.415-1.255,6.347-3.759,8.799C201.73,23.735,198.878,24.96,195.679,24.96"/>
<path fill="#FFC54F" d="M230.879,115.841c-5.44,0-10.4-1.067-14.881-3.2c-4.479-2.132-8.054-5.413-10.72-9.84
	c-2.666-4.425-4-10-4-16.72c0-6.826,1.146-13.333,3.441-19.521c2.292-6.184,5.492-11.705,9.6-16.559
	c4.105-4.854,8.905-8.666,14.4-11.441c5.492-2.772,11.385-4.16,17.68-4.16c8.424,0,15.412,2.428,20.96,7.28
	c5.544,4.856,8.32,12.348,8.32,22.481c0,6.719-1.148,13.174-3.441,19.359c-2.294,6.188-5.467,11.707-9.519,16.561
	c-4.056,4.854-8.8,8.694-14.24,11.52C243.038,114.426,237.171,115.841,230.879,115.841 M232.799,111.36
	c3.412,0,6.505-1.465,9.279-4.4c2.773-2.932,5.173-6.799,7.2-11.6c2.026-4.8,3.601-10.16,4.72-16.08
	c1.12-5.92,1.681-11.813,1.681-17.68c0-8.425-0.987-14.293-2.96-17.599c-1.976-3.305-4.508-4.961-7.601-4.961
	c-3.415,0-6.587,1.416-9.519,4.24c-2.936,2.828-5.468,6.641-7.601,11.44c-2.135,4.8-3.787,10.108-4.96,15.92
	c-1.175,5.816-1.76,11.708-1.76,17.681c0,8.639,1.093,14.639,3.281,18C226.743,109.681,229.491,111.36,232.799,111.36"/>
<path fill="#FFC54F" d="M269.439,150.561c-3.625,0-6.692-0.96-9.199-2.88c-2.505-1.92-3.761-4.535-3.761-7.84
	c0-2.775,0.96-5.04,2.881-6.8c1.92-1.761,4.319-2.641,7.199-2.641c1.601,0,3.146,0.266,4.641,0.8c1.492,0.533,3.04,1.44,4.639,2.721
	c2.133,1.813,4.213,2.933,6.241,3.359c2.024,0.427,4.16-0.215,6.399-1.92c1.493-1.175,2.933-2.399,4.32-3.68
	c1.385-1.28,2.826-2.668,4.321-4.16c0.639-0.64,1.279-1.335,1.92-2.08c-1.388-10.987-2.856-21.492-4.401-31.52
	c-1.547-10.025-3.175-20.64-4.88-31.839c-0.535-4.266-1.04-7.414-1.519-9.441c-0.481-2.024-1.04-3.36-1.681-4
	c-0.64-0.64-1.387-0.96-2.239-0.96c-1.068,0-2.24,0.481-3.521,1.44c-1.28,0.961-2.775,2.668-4.479,5.121l-2.401-2.561
	C280.96,40.162,288.32,34.4,296,34.4c3.945,0,6.799,1.335,8.559,4c1.761,2.667,2.905,6.934,3.441,12.8
	c1.064,10.134,2.024,19.679,2.879,28.64c0.853,8.96,1.706,18.188,2.56,27.68c3.841-8.853,7.12-17.6,9.841-26.24
	c2.72-8.64,5.359-18.241,7.92-28.8c1.705-7.253,3.599-12.159,5.679-14.72c2.081-2.56,4.773-3.84,8.081-3.84
	c2.24,0,4.24,0.696,6,2.08c1.759,1.387,2.639,3.307,2.639,5.76c0,2.561-0.479,4.96-1.439,7.199c-0.96,2.241-2.348,5.069-4.16,8.481
	c-1.708,3.2-3.576,6.615-5.601,10.24c-2.027,3.627-4.427,7.734-7.199,12.32c-2.989,4.8-6.16,9.975-9.521,15.52
	c-3.359,5.547-7.28,11.468-11.76,17.76c-2.347,3.306-4.879,6.721-7.599,10.24c-2.721,3.521-6.056,7.36-10,11.521
	c-4.481,4.692-8.936,8.452-13.36,11.279C278.533,149.146,274.024,150.561,269.439,150.561"/>
<path fill="#FFC54F" d="M406.396,115.841c-5.44,0-10.4-1.067-14.881-3.2c-4.479-2.132-8.055-5.413-10.721-9.84
	c-2.666-4.425-4-10-4-16.72c0-6.826,1.146-13.333,3.441-19.521c2.292-6.184,5.492-11.705,9.6-16.559
	c4.105-4.854,8.905-8.666,14.4-11.441c5.492-2.772,11.385-4.16,17.68-4.16c8.425,0,15.412,2.428,20.96,7.28
	c5.544,4.856,8.32,12.348,8.32,22.481c0,6.719-1.147,13.174-3.44,19.359c-2.295,6.188-5.468,11.707-9.52,16.561
	c-4.056,4.854-8.8,8.694-14.24,11.52S412.688,115.841,406.396,115.841 M408.316,111.36c3.412,0,6.505-1.465,9.279-4.4
	c2.772-2.932,5.173-6.799,7.199-11.6c2.026-4.8,3.602-10.16,4.721-16.08c1.12-5.92,1.681-11.813,1.681-17.68
	c0-8.425-0.987-14.293-2.96-17.599c-1.976-3.305-4.508-4.961-7.601-4.961c-3.415,0-6.587,1.416-9.52,4.24
	c-2.936,2.828-5.468,6.641-7.601,11.44c-2.135,4.8-3.787,10.108-4.96,15.92c-1.175,5.816-1.761,11.708-1.761,17.681
	c0,8.639,1.094,14.639,3.281,18C402.261,109.681,405.009,111.36,408.316,111.36"/>
<path fill="#FFC54F" d="M434.556,152.16c-4.266,0-8.133-0.96-11.601-2.88c-3.465-1.92-5.199-4.694-5.199-8.319
	c0-2.668,0.88-4.775,2.64-6.32c1.76-1.548,3.815-2.32,6.16-2.32c2.455,0,4.695,0.641,6.72,1.92c2.027,1.28,3.896,3.413,5.601,6.4
	l1.119,2.56c0.855,1.28,1.761,1.945,2.721,2c0.96,0.053,1.813-0.56,2.56-1.84c0.426-0.854,0.853-1.76,1.28-2.72
	c0.425-0.959,0.905-2.135,1.439-3.521c1.493-3.52,2.853-7.84,4.081-12.96c1.225-5.119,2.372-10.933,3.439-17.439
	c1.6-10.452,3.173-21.065,4.72-31.84c1.545-10.772,3.173-21.92,4.88-33.44h-13.279l0.64-3.199l6.56-0.801
	c2.561-0.213,4.48-1.064,5.761-2.56c1.28-1.492,2.292-3.573,3.04-6.24c2.88-9.28,7.52-16.372,13.92-21.28
	C488.155,2.456,495.995,0,505.275,0c5.226,0,9.44,1.096,12.64,3.28c3.2,2.188,4.801,5.041,4.801,8.561c0,2.668-0.88,4.827-2.64,6.48
	c-1.761,1.654-3.868,2.48-6.32,2.48c-4.695,0-8.855-3.201-12.48-9.601l-0.64-1.76c-0.96-1.92-2.08-2.904-3.36-2.96
	c-1.28-0.051-2.348,0.667-3.199,2.16c-2.028,2.348-3.788,5.76-5.28,10.24c-1.495,4.48-2.881,10.455-4.16,17.921h19.52l-0.96,5.12
	L483.836,41.6c-1.601,10.988-3.228,22.028-4.881,33.121c-1.654,11.094-3.439,21.759-5.359,32c-1.495,8-3.468,14.933-5.92,20.8
	c-2.455,5.865-5.708,10.825-9.761,14.88c-3.307,3.306-6.96,5.76-10.96,7.36C442.955,151.36,438.823,152.16,434.556,152.16"/>
<path fill="#FFC54F" d="M537.434,115.841c-3.308,0-6-0.828-8.08-2.479c-2.08-1.653-3.12-4.134-3.12-7.44
	c0-4.053,0.64-8.961,1.92-14.721l10.72-49.599h-13.6l0.639-3.36l6.401-0.64c5.439-0.745,9.92-3.305,13.439-7.68l12.48-15.041h4.96
	l-4.479,21.921h17.76l-0.96,5.12l-17.92-0.32l-10.561,51.2c-0.428,1.92-0.747,3.6-0.96,5.04c-0.215,1.439-0.32,2.64-0.32,3.6
	c0,1.068,0.32,1.921,0.961,2.561c0.64,0.64,1.385,0.959,2.239,0.959c2.24,0,5.652-2.292,10.24-6.879l2.56,2.08
	c-2.667,3.947-6.055,7.547-10.159,10.799C547.486,114.213,542.766,115.841,537.434,115.841"/>
<path fill="#FFC54F" d="M594.714,115.841c-7.895,0-14.321-2.561-19.281-7.68c-4.96-5.121-7.438-12.533-7.438-22.24
	c0-6.721,1.172-13.173,3.52-19.36c2.346-6.185,5.573-11.705,9.681-16.56c4.104-4.853,8.933-8.666,14.479-11.44
	c5.545-2.773,11.521-4.16,17.92-4.16c6.612,0,11.652,1.495,15.12,4.479c3.465,2.988,5.2,6.988,5.2,12c0,6.08-4.027,12.08-12.08,18
	c-8.055,5.921-19.707,10.535-34.96,13.841c0.32,6.935,1.973,12,4.96,15.2c2.985,3.199,7.093,4.8,12.32,4.8
	c4.692,0,8.903-1.226,12.64-3.681c3.732-2.452,6.88-5.332,9.44-8.64l2.399,1.761c-2.135,4.055-4.88,7.895-8.241,11.52
	c-3.358,3.627-7.174,6.561-11.438,8.8C604.686,114.721,599.939,115.841,594.714,115.841 M611.994,39.841
	c-2.455,0-5.067,1.039-7.84,3.119c-2.775,2.08-5.415,4.908-7.92,8.481c-2.508,3.575-4.615,7.679-6.32,12.32
	c-1.708,4.64-2.72,9.574-3.04,14.8c11.945-3.521,20.345-7.893,25.2-13.12c4.853-5.225,7.279-10.773,7.279-16.64
	c0-3.093-0.694-5.36-2.079-6.8C615.887,40.561,614.127,39.841,611.994,39.841"/>
<path fill="#FFC54F" d="M647.035,115.841c-4.375,0-8.295-1.601-11.76-4.801c-3.467-3.199-5.2-8.64-5.2-16.319
	c0-5.653,1.093-11.36,3.28-17.12c2.186-5.76,5.12-11.224,8.801-16.4c3.68-5.172,7.813-9.76,12.399-13.76
	c4.585-4,9.305-7.172,14.16-9.519c4.853-2.346,9.465-3.521,13.84-3.521c2.133,0,4.133,0.428,6,1.28
	c1.865,0.856,3.601,1.975,5.2,3.36l12-5.28l1.76,1.12l-13.6,59.68c-0.855,3.415-1.28,5.92-1.28,7.521c0,2.24,1.064,3.359,3.2,3.359
	c1.492,0,3.145-0.612,4.96-1.84c1.813-1.225,3.84-2.904,6.08-5.04l1.92,1.92c-1.6,2.455-3.575,4.854-5.92,7.2
	c-2.348,2.348-4.987,4.295-7.92,5.84c-2.936,1.545-6,2.32-9.2,2.32c-3.308,0-6.08-1.04-8.32-3.12c-2.239-2.08-3.36-5.306-3.36-9.681
	c0-1.491,0.105-3.092,0.32-4.799c-4.375,4.906-8.96,9.066-13.76,12.479C655.836,114.133,651.301,115.841,647.035,115.841
	 M648.636,87.36c0,5.44,0.88,9.36,2.64,11.76c1.76,2.4,4.132,3.601,7.12,3.601c2.561,0,5.173-0.825,7.84-2.479
	c2.665-1.653,5.653-4.133,8.961-7.44c0.104-0.64,0.265-1.493,0.479-2.56l9.92-45.121c-1.388-1.385-2.987-2.372-4.8-2.959
	c-1.815-0.586-3.521-0.881-5.12-0.881c-4.375,0-9.175,2.721-14.4,8.16c-3.734,4.055-6.774,9.575-9.119,16.561
	C649.809,72.988,648.636,80.108,648.636,87.36"/>
</svg>
