<?xml version="1.0" encoding="utf-8"?>
<!-- Generator: Adobe Illustrator 16.0.0, SVG Export Plug-In . SVG Version: 6.00 Build 0)  -->
<!DOCTYPE svg PUBLIC "-//W3C//DTD SVG 1.1//EN" "http://www.w3.org/Graphics/SVG/1.1/DTD/svg11.dtd">
<svg version="1.1" id="Слой_1" xmlns="http://www.w3.org/2000/svg" xmlns:xlink="http://www.w3.org/1999/xlink" x="0px" y="0px"
	 width="368.895px" height="352.314px" viewBox="115.553 23.843 368.895 352.314"
	 enable-background="new 115.553 23.843 368.895 352.314" xml:space="preserve">
<g>
	<path fill="#1D1D1B" d="M483.11,323.806c0.353-0.665,0.648-1.315,0.866-2.036c0.209-0.684,0.318-1.362,0.397-2.085
		c0.086-0.787,0.101-1.546,0.021-2.348c-0.034-0.358,0.079-0.697,0.01-1.059l-28.17-145.875c-0.103-0.524-0.414-0.93-0.581-1.422
		c-0.161-0.485-0.15-0.991-0.381-1.463c-0.116-0.239-0.333-0.379-0.464-0.606c-0.419-0.736-0.941-1.342-1.501-1.958
		c-0.449-0.495-0.859-0.994-1.381-1.397c-0.63-0.492-1.323-0.829-2.044-1.18c-0.628-0.306-1.218-0.617-1.889-0.806
		c-0.675-0.188-1.364-0.229-2.079-0.29c-0.828-0.076-1.626-0.124-2.464-0.015c-0.252,0.033-0.484-0.053-0.739-0.004
		c-0.506,0.098-0.895,0.405-1.37,0.564c-0.497,0.167-1.017,0.157-1.499,0.397l-42.346,20.699
		c6.762-13.487,12.283-30.243,12.283-49.32c0-60.329-48.904-109.442-109.12-109.758c-0.15,0-0.271,0-0.391,0s-0.24,0-0.391,0
		c-60.231,0.315-109.135,49.429-109.135,109.758c0,18.899,5.427,35.522,12.111,48.953l-52.826,25.822
		c-0.22,0.108-0.35,0.309-0.559,0.429c-0.795,0.446-1.465,1.009-2.13,1.633c-0.45,0.421-0.899,0.809-1.271,1.289
		c-0.476,0.615-0.813,1.297-1.161,2.012c-0.333,0.68-0.642,1.334-0.837,2.064c-0.071,0.27-0.253,0.476-0.306,0.754l-28.17,145.876
		c-0.07,0.367,0.044,0.711,0.01,1.076c-0.079,0.785-0.064,1.542,0.021,2.34c0.085,0.777,0.228,1.501,0.465,2.233
		c0.114,0.359,0.074,0.729,0.225,1.081c0.194,0.453,0.51,0.8,0.752,1.214c0.214,0.366,0.404,0.722,0.656,1.062
		c0.72,0.972,1.55,1.815,2.505,2.5c0.123,0.09,0.209,0.212,0.336,0.295c1.144,0.755,2.424,1.235,3.756,1.545
		c0.148,0.035,0.257,0.139,0.407,0.168c0.736,0.14,1.458,0.205,2.166,0.207c0.009,0,0.019,0.004,0.028,0.004
		c0.002,0,0.003-0.001,0.005-0.001c0.004,0,0.007,0.001,0.01,0.001c1.481,0,2.892-0.338,4.221-0.867
		c0.104-0.04,0.213-0.021,0.317-0.064l103.553-44.38l126.511,44.65c0.087,0.03,0.174,0.017,0.262,0.045
		c1.152,0.378,2.352,0.616,3.584,0.616c1.416,0,2.773-0.338,4.072-0.833c0.158-0.06,0.323-0.032,0.48-0.099l107.691-46.154
		c0.347-0.148,0.568-0.439,0.893-0.616c0.688-0.376,1.29-0.801,1.878-1.298c0.57-0.483,1.084-0.969,1.545-1.542
		C482.403,325.045,482.766,324.452,483.11,323.806z M165.33,226.58l49.538-24.214l20.965,28.514l-7.958,77.915l-85.499,36.643
		L165.33,226.58z M243.28,309.288l6.123-59.953l41.373,56.269c2.178,2.96,6.024,4.703,9.69,4.703s7.121-1.75,9.3-4.703l36.76-50.006
		l9.547,93.499L243.28,309.288z M371.559,349.414L360.094,237.14l11.761-16l64.582-31.569l23.549,121.947L371.559,349.414z
		 M300.271,46.92c47.687,0.105,86.433,38.95,86.433,86.681c0,22.529-10.035,41.534-18.539,53.606
		c-0.03,0.038-0.061,0.067-0.09,0.105l-67.804,92.241l-67.563-91.895c-0.045-0.053-0.075-0.105-0.121-0.158
		c-8.563-12.064-18.765-31.205-18.765-53.899C213.822,85.87,252.584,47.025,300.271,46.92z"/>
	<path fill="#1D1D1B" d="M300.466,182.264c26.788,0,48.588-21.83,48.588-48.663c0-26.833-21.8-48.663-48.588-48.663
		c-26.803,0-48.603,21.83-48.603,48.663C251.863,160.434,273.663,182.264,300.466,182.264z M300.466,100.323
		c18.314,0,33.203,14.926,33.203,33.278c0,18.352-14.889,33.278-33.203,33.278s-33.218-14.926-33.218-33.278
		C267.248,115.25,282.151,100.323,300.466,100.323z"/>
</g>
</svg>
