<?xml version="1.0" encoding="utf-8"?>
<!-- Generator: Adobe Illustrator 23.0.0, SVG Export Plug-In . SVG Version: 6.00 Build 0)  -->
<svg version="1.1" id="Layer_1" xmlns="http://www.w3.org/2000/svg" xmlns:xlink="http://www.w3.org/1999/xlink" x="0px" y="0px"
	 viewBox="0 0 301 400" style="enable-background:new 0 0 301 400;" xml:space="preserve">
<style type="text/css">
	
		.st0{fill-rule:evenodd;clip-rule:evenodd;fill:none;stroke:#000000;stroke-width:2;stroke-linecap:round;stroke-linejoin:round;stroke-miterlimit:10;}
	
		.st1{fill-rule:evenodd;clip-rule:evenodd;fill:none;stroke:#000000;stroke-linecap:round;stroke-linejoin:round;stroke-miterlimit:10;}
</style>
<g>
	<path class="st0" d="M42.76,347.17c0,0-20.43,15.1-22.5,16.49c-2.07,1.39-5.74,2.98-3.39,3.42c2.35,0.44,6.5-1.28,8.11-2.38
		c1.61-1.1,39.01-30.26,47.96-41.37c8.95-11.11,31.28-31.36,32.19-32.4c0.9-1.05,1.64,0.9,5.99,0c4.35-0.91,11.23-1.92,13.6-1.72
		c2.37,0.2,4.89-0.52,7.98-0.47c3.09,0.05,8.19,1.86,11.33,2.26c3.14,0.41,18.75,7.1,34.2,7.32c15.45,0.23,23.37,1.18,42.21-5.17
		c18.84-6.35,26.25-10.4,35.43-11.82c9.17-1.42,11.79-2.17,11.79-2.17s4.44-0.69,7.33-0.33c2.89,0.36-7.2-7.4-22.32-20.05
		c-15.12-12.65-49.34-22.66-76.1-12.59c-26.75,10.08-34.82,18.83-46.39,26.51c-11.56,7.68-18.29,10.95-18.96,11.17
		c-0.67,0.22-4.8,4.67-4.94,5.25c-0.13,0.57,14-1.38,20.2-5.22c6.2-3.84,24.27-8.01,30.7-7.89s28.23-4.62,32.72-4.94
		c4.49-0.32,16.87-2.95,27.24-2.22c10.37,0.73,17.18,1.55,22.78,2.33c5.61,0.78,8.78,0.41,11.15,1c2.37,0.59,16.21,5.54,16.21,5.54
		s13.39,2.09,15.54,3.78"/>
	<path class="st1" d="M143.67,278.1c0,0-0.53,2.89,2.09,4.27c2.62,1.37,11.76,6.27,13.01,7.78c1.25,1.51,3.69,3.08,3.69,3.08"/>
	<path class="st1" d="M163.1,276.41c0,0,0.62,2.77,6.62,5.16c6,2.39,10.7,9.16,12.64,10.52c1.94,1.35,9.28,4.58,9.28,4.58"/>
	<path class="st1" d="M192.67,270.87c0,0-2.76,0.65,2.86,4.47c5.62,3.83,16.84,11.19,19.31,12.7c2.47,1.5,8.25,2.59,8.25,2.59"/>
	<path class="st1" d="M218.1,268.93c0,0,5.38,4.62,8.91,6.38c3.53,1.77,6.44,4.39,6.44,4.39l3.48,2.64"/>
	<path class="st1" d="M145.11,276.97c0,0-0.4-1.54,7.37-7.69c7.77-6.15,12.68-8.97,14.89-11.28c2.21-2.31,15.39-7.83,18.15-10.93
		c2.76-3.1,2.76-3.1,2.76-3.1"/>
	<path class="st1" d="M183.91,271.38c0,0,2.39-4.53,7.58-7.68c5.18-3.15,10.56-7.49,12.44-8.08c1.88-0.59,17.06-6.85,17.06-6.85"/>
	<path class="st1" d="M231.79,269.55c0,0,1.4-2.77,3.02-3.47c1.62-0.71,5.34-0.76,5.34-0.76"/>
	<path class="st0" d="M15.84,366.82c0,0-10.11,1.07-8.48-1.15c1.63-2.23,0.88-3.56,0.88-3.56s12.04-3.74,16.76-6.87
		c4.72-3.13,22.79-15.15,31.29-23.74c8.5-8.59,12.72-17.64,12.72-17.64s16.28-38.47,1.93-77.51c-14.35-39.04-24.9-66.2-32.1-78.64
		c-7.2-12.44-6.22-17.65-3.82-18.15c2.4-0.5,14.42,5.13,17.43,7.39c3.01,2.26,36.92,14.56,52.76,55.95
		c15.84,41.39-3.06,61.6-4.17,63.78c-1.11,2.18-1.11,2.18-1.11,2.18s-7.93,14.63-8.38,14.71c-0.44,0.08-8.25,12.63-9.23,16.16
		c-0.98,3.52-4.33,10.18-7.67,12.03c-3.34,1.85-3.58,1.93-3.58,1.93"/>
	<path class="st1" d="M96.35,274.22c0,0,3.57-7.8,3.45-14.91c-0.11-7.11,6.22-18.76-2-36.12c-8.22-17.37-16.31-34.02-18.76-37
		c-2.45-2.98-13.39-14.04-17.96-18.41c-4.56-4.38-11.47-8.19-13.85-12.19c-2.37-4-11.11-10.62-13.35-15.27
		c-2.23-4.65-5.58-11.49-5.58-11.49"/>
	<path class="st1" d="M81.84,299.45"/>
	<path class="st1" d="M71.6,306.29"/>
	<path class="st1" d="M84.21,286.91"/>
	<path class="st1" d="M74.73,296.74"/>
	<path class="st1" d="M76.47,254.01c0,0,7.35-11.62,8.46-20.19c1.1-8.57,6.19-20.59,3.19-23.27"/>
	<path class="st1" d="M66.86,222.72c0,0,4.07-12.19,4.25-22.77c0.18-10.58-0.6-15.44-0.65-16.79c-0.05-1.35,0.52-2.37,0.52-2.37"/>
	<path class="st1" d="M55.6,191.7c0,0,3.04-13.36,1.49-20.16c-1.56-6.8-0.35-6.74-0.35-6.74"/>
	<path class="st1" d="M55.46,149.22c0,0,5.3,11.29,5.64,14.46c0.34,3.17,0.34,3.17,0.34,3.17"/>
	<path class="st1" d="M74.05,165.05c0,0,1.55,12.18,5.71,21.32"/>
	<path class="st1" d="M105.86,211.71c0,0-2.12,14.94-4.98,18.57"/>
	<path class="st1" d="M106.05,235.96c0,0,0.42,6.03-3.71,7.27"/>
	<path class="st0" d="M81.11,304.05c0,0,12.46-10.34,18.19-18.87c3.14-4.67,22.18-28.14,24.25-30.73
		c2.07-2.59,12.1-14.82,12.56-15.57c0.46-0.75,0.79-2.2,0.79-2.2l1.45-6.24c0,0-1.18,0.7-0.61-2.05c0.57-2.76,5.98-21.39,3.42-36.49
		c-2.56-15.1,5.18-43.17,8.98-61.63c3.81-18.46,15.03-33.08,17.72-42.64s6.58-23.89,6.45-24.57c-0.14-0.68,0.49-1.32,0.49-1.32
		s-1.66-5.66,1.1-4.12c2.76,1.54,31.83,42.34,31.29,74.99s-3.11,40.19-14.24,56.7c-11.14,16.51-19.08,24.04-31.33,33.47
		c-12.25,9.44-15.41,9.33-17.92,10.95c-2.51,1.62-2.51,1.62-2.51,1.62l-3.35,1.99"/>
	<path class="st0" d="M111.2,283.87c0,0-1.02-1.86,2.24-5.89c3.26-4.03,18.94-24.36,22.19-28.29c3.25-3.93,12.12-13.44,13.21-14.54
		c1.09-1.1,4.27-2.28,2.9-4.93"/>
	<path class="st1" d="M138.36,230.44c0,0,6.71-6.72,13.12-22.69c6.41-15.96,14.51-30.32,16.16-33.74
		c1.65-3.42,7.63-22.37,8.74-27.21c1.11-4.84,4.08-27.97,3.97-39.66c-0.12-11.69-1.53-28.39-1.53-28.39"/>
	<path class="st1" d="M156.76,193.02c0,0-3.01-19.86-11.01-28.51"/>
	<path class="st1" d="M167.06,173.04c0,0-2.21-21.26-17.04-40.53"/>
	<path class="st1" d="M177.16,143.97c0,0-4.73-17.12-17.55-36.86"/>
	<path class="st1" d="M180.34,107.14c0,0-0.99-4.5-10.61-18.64"/>
	<path class="st1" d="M199.56,125.61c0,0-0.3,13.85-23.31,28.39"/>
	<path class="st1" d="M192.05,172.12c0,0-6.2,11.99-32.96,18.61"/>
	<path class="st1" d="M174.18,204.7c0,0-14.08,10.77-24.39,8.63"/>
	<path class="st1" d="M146.66,203.73c0,0-0.09,8.16,0.64,12.54"/>
	<path class="st0" d="M208.02,134.54c0,0,9.18-13.17,37.31-4.28c28.12,8.89,38.86,19.18,40.73,19.86c1.87,0.68,5.67,1.81,7.53,3.16
		c1.86,1.35-14.08-5.66-40.68,3.37c-26.6,9.04-39.85,15.21-43.66,18.73c-3.81,3.52-7.33,5.75-10.31,5.52"/>
	<path class="st1" d="M206.9,145.09c0,0,21.36-8.2,47.44-1.99c26.09,6.21,27.55,8,27.55,8"/>
	<path class="st1" d="M215.48,142.62c0,0,1.78-7.75,8.08-9.25"/>
	<path class="st1" d="M235.13,140.54c0,0,7.78-6.61,10.18-6.67c2.4-0.06,1.94-1.93,1.94-1.93"/>
	<path class="st1" d="M252.69,142.72c0,0,6.73-4.19,9.61-3.73"/>
	<path class="st1" d="M204.76,163.73c0,0,2.5-0.13,3.72-1.1c1.22-0.96,5.65-8.61,7.83-11.22c2.18-2.62,5.41-6.92,5.41-6.92
		l1.25-2.52"/>
	<path class="st1" d="M209.25,175.38c0,0-1.57-2.92,2.76-8.85c4.32-5.93,5.65-8.29,5.65-8.29"/>
	<path class="st1" d="M220.56,167.97c0,0-0.9-1.54,0.92-3.75s3.41-4.12,4.87-5.83c1.46-1.71,10.13-12.82,14.48-13.53"/>
	<path class="st1" d="M243.63,159.87c0,0-1.2-1.98,0.67-3.43s9.75-6.55,11.86-7.69c2.1-1.14,4.54-1.21,4.92-2.09
		c0.38-0.88,0.38-0.88,0.38-0.88l0.31-0.93"/>
	<path class="st1" d="M213.93,120.44c1.6-5.35,0.94-4.59,2.88-8.08c1.94-3.48,3.02-10.63,4.17-14.13c1.14-3.5,2.12-9.41,3.2-12.66
		s2.99-6.25,3.45-10.03c0.46-3.78,2.5-11.27,3.6-14.15c1.1-2.88,1.91-6.34,3.15-8.29c1.24-1.95,3.3-6.58,4.42-7.98
		c1.12-1.4,1.97-6.52,3.24-7.04c1.26-0.52,3.83-2.17,3.83-2.17"/>
	<path class="st0" d="M210.97,131.33c0,0,2.76-8.73,2.43-11.91c-0.33-3.18-2.68-12.79-2.55-15.34c0.12-2.55-9.68-24.31,1.69-44.65
		c11.37-20.34,21.25-18.95,23.36-21.14c2.12-2.19,1.34-1.73,4.12-3.31c2.78-1.59,10.84-5.94,14.91-10.71c0,0,0.55-0.23,0.41,0.36
		c-0.14,0.59-3.39,4.38-3.71,5.5c-0.32,1.11-3.86,9.94-4.3,12.31c-0.44,2.37-1.52,13.11-2.44,17.67
		c-0.92,4.55-2.07,13.71-3.92,19.19c-1.85,5.48-4.7,14.81-7.53,18.56c-2.83,3.76-5.96,9.13-8.55,11.32
		c-2.59,2.18-4.7,4.34-6.57,6.06c-1.87,1.72-2.89,3.33-3.55,4.55c-0.23,0.43-0.55,0.91-0.79,1.12"/>
	<path class="st1" d="M218.96,106.26c0,0-3-1.68-3.57-4.19c-0.56-2.51-1.76-4.09-1.76-4.09"/>
	<path class="st1" d="M220.98,98.23c0,0-3.39-5.6-4.6-7.32c-1.21-1.72-4.7-6.97-4.7-6.97"/>
	<path class="st1" d="M227.65,75.37c-0.39-0.52-1.78-1.31-2.08-2.07c-0.3-0.77-0.35-2.92-0.86-3.66c-0.52-0.74-3.07-7.96-3.07-7.96"
		/>
	<path class="st1" d="M235.51,51.09c0,0-0.24-2.49,0.2-4.88c0.43-2.39,1.42-6.83,1.42-6.83"/>
	<path class="st1" d="M232.42,59.09c0,0,3.84-3.47,5.4-4.58c1.56-1.12,4.9-3.92,5.37-4.33c0.47-0.41,2.33-0.18,2.33-0.18"/>
	<path class="st1" d="M219.45,104.41c0,0,2.36-0.76,3.62-2.19c1.27-1.43,4.69-5.33,5.79-6.42c1.1-1.08,4.31-2.57,5.53-2.16"/>
	<path class="st1" d="M223.79,87.76c-0.06-0.66,5.06-6.94,8.06-8.78c3-1.84,2.7-3.08,5.81-5.35c3.11-2.27,4.56-2.72,4.56-2.72"/>
	<path class="st1" d="M78.96,312.91c0,0,7.23-8.72,9.64-11.12"/>
	<path class="st1" d="M109.33,277.7c0.26-0.39,6.56-9.26,7.49-10.21"/>
	<path class="st1" d="M77.49,279.33c0,0,6.45-6.41,8.1-13.18"/>
	<path class="st1" d="M76.97,265.94c0,0,4.78-7.13,6.5-14.62"/>
	<path class="st1" d="M73.2,241.71c0,0,3.85-7.95,3.95-12.26"/>
	<path class="st1" d="M68.1,227.03c0,0,4.76-7.13,5.08-13.29"/>
	<path class="st1" d="M61.41,208.99c0,0,4.24-7.39,3.19-12.21"/>
	<path class="st1" d="M58.15,199.05c0,0,2.82-4.88,2.57-9.59"/>
	<path class="st1" d="M51.45,179.93c0,0,1.55-4.45,0.03-9.51"/>
	<path class="st1" d="M91.27,206.59c0,0,0.16-4.14,0.29-8.87c0.12-4.72-0.28-8.63,0.47-9.58"/>
	<path class="st1" d="M216.63,293.47c0,0-6.19-3.13-9.23-5.33"/>
	<path class="st1" d="M200.51,294.67c0,0-2.74-2.89-5.86-4.42"/>
	<path class="st1" d="M188.48,259.28c0,0-8.38,7.22-9.4,9.47c-1.02,2.24-1.17,3.69-1.17,3.69"/>
	<path class="st1" d="M241.92,258.74c0,0-9.72,2.17-14.38,6.06c-4.66,3.89-6.71,3.72-6.71,3.72"/>
	<path class="st1" d="M256.13,280.26c0,0-1.87-1.37-5.79-3.25"/>
	<path class="st1" d="M246.78,283.28c0,0-1.65-1.68-6.01-3.32c-4.36-1.64-4.36-1.64-4.36-1.64"/>
	<path class="st1" d="M231.21,288.05c0,0-2.94-2.14-6.64-3.97"/>
	<path class="st1" d="M167.8,274.67c0,0,4.71-9.97,6.69-10.77"/>
	<path class="st1" d="M134.08,280.48c0,0,3.06-8.85,5.45-11.1c2.39-2.25,3.46-4.4,3.46-4.4"/>
	<path class="st1" d="M153.23,203.53c0,0-2.29-6.78-3.07-9.32c-0.78-2.54-0.78-2.54-0.78-2.54"/>
	<path class="st1" d="M205.89,149.09c0,0-4.59,7.05-7.46,9.89c-2.87,2.84-5.01,3.42-5.01,3.42"/>
	<path class="st1" d="M203.34,108.66c0,0-0.67,6.01-2.58,8.52c-1.9,2.51-3.22,3.89-3.22,3.89"/>
	<path class="st1" d="M199.09,98.96c0,0-4.39,3.97-5.07,6.14c-0.68,2.17-1.76,4.87-2.65,6.71c-0.89,1.84-5.49,8.05-5.49,8.05"/>
	<path class="st1" d="M192.8,83.45c0,0-1.25,3.53-3.23,5.57c-1.97,2.04-1.66,2.64-2.54,3.07"/>
	<path class="st1" d="M222.55,91.67c0.16-0.34-5.16-7.74-6.24-10.1c-1.08-2.36-1.21-2.74-2.11-3.15"/>
</g>
<path class="st1" d="M92.73,75.8c-0.9,8.43-0.47,17.56,1.56,25.78c2.72,11.01,10.67,19.58,14.58,30.09
	c2.96,7.96,4.73,16.54,5.59,24.98"/>
<path class="st1" d="M104.25,94.22c4.17,10.23-5.21,18.97-5.21,18.97"/>
<path class="st1" d="M85.04,112.82c3.98,8.12,19.82,9.61,19.82,9.61"/>
<path class="st1" d="M84.28,90.73c0.52,13.32,12.31,18.38,12.31,18.38"/>
<path class="st0" d="M92.15,132.15c-9.23-10.02-14.29-26.77-8.93-39.78c2.38-5.77,6.09-11.36,9.52-16.57
	c0,0,10.47,15.14,22.05,37.53c11.58,22.39-1.15,44.94-1.15,44.94C113.48,147.29,109.19,150.64,92.15,132.15z"/>
<path class="st1" d="M116.62,118.01c-0.58,8.38-7.8,13.16-7.8,13.16"/>
<path class="st1" d="M96.75,133.59c4.31,1.86,9.04,2.12,13.59,3.02"/>
<path class="st1" d="M91.48,327.21c7.57-0.03,15.34,0.75,22.68,2.63c9.68,2.48,18.03,8.74,28.05,10.13
	c7.48,1.04,15.62,0.56,23.01-1.02"/>
<path class="st1" d="M131.46,336.83c0,0,6.88-9.14,16.34-6.39"/>
<path class="st1" d="M122.72,332.53c0,0,2.8,13.91,10.37,16.68"/>
<path class="st1" d="M135.31,338.63c0,0,5.58,9.99,17.45,9.21"/>
<path class="st0" d="M90.12,328.09c0,0,18.82-13.39,39.76-5.2c20.94,8.19,35.34,16.07,35.34,16.07c-4.3,3.52-8.91,7.34-13.81,9.98
	c-11.04,5.97-26.37,3.03-36.11-4.22C97.3,331.32,99.87,327.2,90.12,328.09z"/>
<path class="st1" d="M114.6,329.83c0,0,3.56-6.85,10.95-8.15"/>
<path class="st1" d="M109.63,328.99c1.23,3.95,1.89,8.12,3.95,11.77"/>
</svg>
