<?xml version="1.0" encoding="utf-8"?>
<!-- Generator: Adobe Illustrator 23.0.0, SVG Export Plug-In . SVG Version: 6.00 Build 0)  -->
<svg version="1.1" id="Layer_1" xmlns="http://www.w3.org/2000/svg" xmlns:xlink="http://www.w3.org/1999/xlink" x="0px" y="0px"
	 viewBox="0 0 301 400" style="enable-background:new 0 0 301 400;" xml:space="preserve">
<style type="text/css">
	
		.st0{fill-rule:evenodd;clip-rule:evenodd;fill:none;stroke:#000000;stroke-width:2;stroke-linecap:round;stroke-linejoin:round;stroke-miterlimit:10;}
	
		.st1{fill-rule:evenodd;clip-rule:evenodd;fill:none;stroke:#000000;stroke-linecap:round;stroke-linejoin:round;stroke-miterlimit:10;}
</style>
<g>
	<path class="st0" d="M258.15,347.17c0,0,20.43,15.1,22.5,16.49c2.07,1.39,5.74,2.98,3.39,3.42c-2.35,0.44-6.5-1.28-8.11-2.38
		c-1.61-1.1-39.01-30.26-47.96-41.37c-8.95-11.11-31.28-31.36-32.19-32.4c-0.9-1.05-1.64,0.9-5.99,0
		c-4.35-0.91-11.23-1.92-13.6-1.72c-2.37,0.2-4.89-0.52-7.98-0.47c-3.09,0.05-8.19,1.86-11.33,2.26c-3.14,0.41-18.75,7.1-34.2,7.32
		c-15.45,0.23-23.37,1.18-42.21-5.17c-18.84-6.35-26.25-10.4-35.43-11.82c-9.17-1.42-11.79-2.17-11.79-2.17s-4.44-0.69-7.33-0.33
		c-2.89,0.36,7.2-7.4,22.32-20.05c15.12-12.65,49.34-22.66,76.1-12.59c26.75,10.08,34.82,18.83,46.39,26.51
		c11.56,7.68,18.29,10.95,18.96,11.17c0.67,0.22,4.8,4.67,4.94,5.25c0.13,0.57-14-1.38-20.2-5.22c-6.2-3.84-24.27-8.01-30.7-7.89
		c-6.44,0.12-28.23-4.62-32.72-4.94c-4.49-0.32-16.87-2.95-27.24-2.22c-10.37,0.73-17.18,1.55-22.78,2.33
		c-5.61,0.78-8.78,0.41-11.15,1c-2.37,0.59-16.21,5.54-16.21,5.54s-13.39,2.09-15.54,3.78"/>
	<path class="st1" d="M157.24,278.1c0,0,0.53,2.89-2.09,4.27c-2.62,1.37-11.76,6.27-13.01,7.78c-1.25,1.51-3.69,3.08-3.69,3.08"/>
	<path class="st1" d="M137.8,276.41c0,0-0.62,2.77-6.62,5.16c-6,2.39-10.7,9.16-12.64,10.52c-1.94,1.35-9.28,4.58-9.28,4.58"/>
	<path class="st1" d="M108.24,270.87c0,0,2.76,0.65-2.86,4.47c-5.62,3.83-16.84,11.19-19.31,12.7c-2.47,1.5-8.25,2.59-8.25,2.59"/>
	<path class="st1" d="M82.8,268.93c0,0-5.38,4.62-8.91,6.38c-3.53,1.77-6.44,4.39-6.44,4.39l-3.48,2.64"/>
	<path class="st1" d="M155.79,276.97c0,0,0.4-1.54-7.37-7.69c-7.77-6.15-12.68-8.97-14.89-11.28c-2.21-2.31-15.39-7.83-18.15-10.93
		c-2.76-3.1-2.76-3.1-2.76-3.1"/>
	<path class="st1" d="M116.99,271.38c0,0-2.39-4.53-7.58-7.68c-5.18-3.15-10.56-7.49-12.44-8.08c-1.88-0.59-17.06-6.85-17.06-6.85"
		/>
	<path class="st1" d="M69.12,269.55c0,0-1.4-2.77-3.02-3.47c-1.62-0.71-5.34-0.76-5.34-0.76"/>
	<path class="st0" d="M285.07,366.82c0,0,10.11,1.07,8.48-1.15c-1.63-2.23-0.88-3.56-0.88-3.56s-12.04-3.74-16.76-6.87
		c-4.72-3.13-22.79-15.15-31.29-23.74c-8.5-8.59-12.72-17.64-12.72-17.64s-16.28-38.47-1.93-77.51c14.35-39.04,24.9-66.2,32.1-78.64
		c7.2-12.44,6.22-17.65,3.82-18.15c-2.4-0.5-14.42,5.13-17.43,7.39c-3.01,2.26-36.92,14.56-52.76,55.95
		c-15.84,41.39,3.06,61.6,4.17,63.78c1.11,2.18,1.11,2.18,1.11,2.18s7.93,14.63,8.38,14.71c0.44,0.08,8.25,12.63,9.23,16.16
		c0.98,3.52,4.33,10.18,7.67,12.03c3.34,1.85,3.58,1.93,3.58,1.93"/>
	<path class="st1" d="M204.56,274.22c0,0-3.57-7.8-3.45-14.91c0.11-7.11-6.22-18.76,2-36.12c8.22-17.37,16.31-34.02,18.76-37
		c2.45-2.98,13.39-14.04,17.96-18.41c4.56-4.38,11.47-8.19,13.85-12.19c2.37-4,11.11-10.62,13.35-15.27
		c2.23-4.65,5.58-11.49,5.58-11.49"/>
	<path class="st1" d="M219.07,299.45"/>
	<path class="st1" d="M229.31,306.29"/>
	<path class="st1" d="M216.69,286.91"/>
	<path class="st1" d="M226.18,296.74"/>
	<path class="st1" d="M224.43,254.01c0,0-7.35-11.62-8.46-20.19c-1.1-8.57-6.19-20.59-3.19-23.27"/>
	<path class="st1" d="M234.05,222.72c0,0-4.07-12.19-4.25-22.77c-0.18-10.58,0.6-15.44,0.65-16.79c0.05-1.35-0.52-2.37-0.52-2.37"/>
	<path class="st1" d="M245.31,191.7c0,0-3.04-13.36-1.49-20.16c1.56-6.8,0.35-6.74,0.35-6.74"/>
	<path class="st1" d="M245.45,149.22c0,0-5.3,11.29-5.64,14.46c-0.34,3.17-0.34,3.17-0.34,3.17"/>
	<path class="st1" d="M226.86,165.05c0,0-1.55,12.18-5.71,21.32"/>
	<path class="st1" d="M195.05,211.71c0,0,2.12,14.94,4.98,18.57"/>
	<path class="st1" d="M194.85,235.96c0,0-0.42,6.03,3.71,7.27"/>
	<path class="st0" d="M219.79,304.05c0,0-12.46-10.34-18.19-18.87c-3.14-4.67-22.18-28.14-24.25-30.73
		c-2.07-2.59-12.1-14.82-12.56-15.57c-0.46-0.75-0.79-2.2-0.79-2.2l-1.45-6.24c0,0,1.18,0.7,0.61-2.05
		c-0.57-2.76-5.98-21.39-3.42-36.49c2.56-15.1-5.18-43.17-8.98-61.63c-3.81-18.46-15.03-33.08-17.72-42.64s-6.58-23.89-6.45-24.57
		c0.14-0.68-0.49-1.32-0.49-1.32s1.66-5.66-1.1-4.12c-2.76,1.54-31.83,42.34-31.29,74.99c0.54,32.65,3.11,40.19,14.24,56.7
		c11.14,16.51,19.08,24.04,31.33,33.47c12.25,9.44,15.41,9.33,17.92,10.95c2.51,1.62,2.51,1.62,2.51,1.62l3.35,1.99"/>
	<path class="st0" d="M189.7,283.87c0,0,1.02-1.86-2.24-5.89c-3.26-4.03-18.94-24.36-22.19-28.29
		c-3.25-3.93-12.12-13.44-13.21-14.54c-1.09-1.1-4.27-2.28-2.9-4.93"/>
	<path class="st1" d="M162.55,230.44c0,0-6.71-6.72-13.12-22.69c-6.41-15.96-14.51-30.32-16.16-33.74
		c-1.65-3.42-7.63-22.37-8.74-27.21c-1.11-4.84-4.08-27.97-3.97-39.66c0.12-11.69,1.53-28.39,1.53-28.39"/>
	<path class="st1" d="M144.15,193.02c0,0,3.01-19.86,11.01-28.51"/>
	<path class="st1" d="M133.84,173.04c0,0,2.21-21.26,17.04-40.53"/>
	<path class="st1" d="M123.75,143.97c0,0,4.73-17.12,17.55-36.86"/>
	<path class="st1" d="M120.56,107.14c0,0,0.99-4.5,10.61-18.64"/>
	<path class="st1" d="M101.34,125.61c0,0,0.3,13.85,23.31,28.39"/>
	<path class="st1" d="M108.86,172.12c0,0,6.2,11.99,32.96,18.61"/>
	<path class="st1" d="M126.72,204.7c0,0,14.08,10.77,24.39,8.63"/>
	<path class="st1" d="M154.25,203.73c0,0,0.09,8.16-0.64,12.54"/>
	<path class="st0" d="M92.89,134.54c0,0-9.18-13.17-37.31-4.28c-28.12,8.89-38.86,19.18-40.73,19.86c-1.87,0.68-5.67,1.81-7.53,3.16
		s14.08-5.66,40.68,3.37c26.6,9.04,39.85,15.21,43.66,18.73c3.81,3.52,7.33,5.75,10.31,5.52"/>
	<path class="st1" d="M94,145.09c0,0-21.36-8.2-47.44-1.99c-26.09,6.21-27.55,8-27.55,8"/>
	<path class="st1" d="M85.43,142.62c0,0-1.78-7.75-8.08-9.25"/>
	<path class="st1" d="M65.78,140.54c0,0-7.78-6.61-10.18-6.67c-2.4-0.06-1.94-1.93-1.94-1.93"/>
	<path class="st1" d="M48.22,142.72c0,0-6.73-4.19-9.61-3.73"/>
	<path class="st1" d="M96.14,163.73c0,0-2.5-0.13-3.72-1.1c-1.22-0.96-5.65-8.61-7.83-11.22c-2.18-2.62-5.41-6.92-5.41-6.92
		l-1.25-2.52"/>
	<path class="st1" d="M91.66,175.38c0,0,1.57-2.92-2.76-8.85c-4.32-5.93-5.65-8.29-5.65-8.29"/>
	<path class="st1" d="M80.34,167.97c0,0,0.9-1.54-0.92-3.75c-1.82-2.21-3.41-4.12-4.87-5.83c-1.46-1.71-10.13-12.82-14.48-13.53"/>
	<path class="st1" d="M57.28,159.87c0,0,1.2-1.98-0.67-3.43c-1.87-1.46-9.75-6.55-11.86-7.69c-2.1-1.14-4.54-1.21-4.92-2.09
		c-0.38-0.88-0.38-0.88-0.38-0.88l-0.31-0.93"/>
	<path class="st1" d="M86.98,120.44c-1.6-5.35-0.94-4.59-2.88-8.08c-1.94-3.48-3.02-10.63-4.17-14.13c-1.14-3.5-2.12-9.41-3.2-12.66
		c-1.08-3.25-2.99-6.25-3.45-10.03c-0.46-3.78-2.5-11.27-3.6-14.15c-1.1-2.88-1.91-6.34-3.15-8.29c-1.24-1.95-3.3-6.58-4.42-7.98
		c-1.12-1.4-1.97-6.52-3.24-7.04c-1.26-0.52-3.83-2.17-3.83-2.17"/>
	<path class="st0" d="M89.94,131.33c0,0-2.76-8.73-2.43-11.91c0.33-3.18,2.68-12.79,2.55-15.34c-0.12-2.55,9.68-24.31-1.69-44.65
		C77,39.09,67.12,40.48,65.01,38.29c-2.12-2.19-1.34-1.73-4.12-3.31c-2.78-1.59-10.84-5.94-14.91-10.71c0,0-0.55-0.23-0.41,0.36
		c0.14,0.59,3.39,4.38,3.71,5.5c0.32,1.11,3.86,9.94,4.3,12.31c0.44,2.37,1.52,13.11,2.44,17.67c0.92,4.55,2.07,13.71,3.92,19.19
		c1.85,5.48,4.7,14.81,7.53,18.56c2.83,3.76,5.96,9.13,8.55,11.32c2.59,2.18,4.7,4.34,6.57,6.06c1.87,1.72,2.89,3.33,3.55,4.55
		c0.23,0.43,0.55,0.91,0.79,1.12"/>
	<path class="st1" d="M81.95,106.26c0,0,3-1.68,3.57-4.19c0.56-2.51,1.76-4.09,1.76-4.09"/>
	<path class="st1" d="M79.93,98.23c0,0,3.39-5.6,4.6-7.32c1.21-1.72,4.7-6.97,4.7-6.97"/>
	<path class="st1" d="M73.25,75.37c0.39-0.52,1.78-1.31,2.08-2.07c0.3-0.77,0.35-2.92,0.86-3.66c0.52-0.74,3.07-7.96,3.07-7.96"/>
	<path class="st1" d="M65.39,51.09c0,0,0.24-2.49-0.2-4.88c-0.43-2.39-1.42-6.83-1.42-6.83"/>
	<path class="st1" d="M68.48,59.09c0,0-3.84-3.47-5.4-4.58c-1.56-1.12-4.9-3.92-5.37-4.33C57.25,49.77,55.39,50,55.39,50"/>
	<path class="st1" d="M81.46,104.41c0,0-2.36-0.76-3.62-2.19c-1.27-1.43-4.69-5.33-5.79-6.42c-1.1-1.08-4.31-2.57-5.53-2.16"/>
	<path class="st1" d="M77.12,87.76c0.06-0.66-5.06-6.94-8.06-8.78c-3-1.84-2.7-3.08-5.81-5.35c-3.11-2.27-4.56-2.72-4.56-2.72"/>
	<path class="st1" d="M221.95,312.91c0,0-7.23-8.72-9.64-11.12"/>
	<path class="st1" d="M191.58,277.7c-0.26-0.39-6.56-9.26-7.49-10.21"/>
	<path class="st1" d="M223.42,279.33c0,0-6.45-6.41-8.1-13.18"/>
	<path class="st1" d="M223.94,265.94c0,0-4.78-7.13-6.5-14.62"/>
	<path class="st1" d="M227.7,241.71c0,0-3.85-7.95-3.95-12.26"/>
	<path class="st1" d="M232.81,227.03c0,0-4.76-7.13-5.08-13.29"/>
	<path class="st1" d="M239.5,208.99c0,0-4.24-7.39-3.19-12.21"/>
	<path class="st1" d="M242.75,199.05c0,0-2.82-4.88-2.57-9.59"/>
	<path class="st1" d="M249.46,179.93c0,0-1.55-4.45-0.03-9.51"/>
	<path class="st1" d="M209.64,206.59c0,0-0.16-4.14-0.29-8.87c-0.12-4.72,0.28-8.63-0.47-9.58"/>
	<path class="st1" d="M84.28,293.47c0,0,6.19-3.13,9.23-5.33"/>
	<path class="st1" d="M100.4,294.67c0,0,2.74-2.89,5.86-4.42"/>
	<path class="st1" d="M112.42,259.28c0,0,8.38,7.22,9.4,9.47c1.02,2.24,1.17,3.69,1.17,3.69"/>
	<path class="st1" d="M58.99,258.74c0,0,9.72,2.17,14.38,6.06c4.66,3.89,6.71,3.72,6.71,3.72"/>
	<path class="st1" d="M44.77,280.26c0,0,1.87-1.37,5.79-3.25"/>
	<path class="st1" d="M54.12,283.28c0,0,1.65-1.68,6.01-3.32c4.36-1.64,4.36-1.64,4.36-1.64"/>
	<path class="st1" d="M69.7,288.05c0,0,2.94-2.14,6.64-3.97"/>
	<path class="st1" d="M133.1,274.67c0,0-4.71-9.97-6.69-10.77"/>
	<path class="st1" d="M166.82,280.48c0,0-3.06-8.85-5.45-11.1c-2.39-2.25-3.46-4.4-3.46-4.4"/>
	<path class="st1" d="M147.67,203.53c0,0,2.29-6.78,3.07-9.32c0.78-2.54,0.78-2.54,0.78-2.54"/>
	<path class="st1" d="M95.02,149.09c0,0,4.59,7.05,7.46,9.89c2.87,2.84,5.01,3.42,5.01,3.42"/>
	<path class="st1" d="M97.56,108.66c0,0,0.67,6.01,2.58,8.52c1.9,2.51,3.22,3.89,3.22,3.89"/>
	<path class="st1" d="M101.81,98.96c0,0,4.39,3.97,5.07,6.14c0.68,2.17,1.76,4.87,2.65,6.71c0.89,1.84,5.49,8.05,5.49,8.05"/>
	<path class="st1" d="M108.1,83.45c0,0,1.25,3.53,3.23,5.57c1.97,2.04,1.66,2.64,2.54,3.07"/>
	<path class="st1" d="M78.36,91.67c-0.16-0.34,5.16-7.74,6.24-10.1c1.08-2.36,1.21-2.74,2.11-3.15"/>
</g>
<path class="st1" d="M186.46,156.65c0.85-8.44,2.63-17.02,5.59-24.98c3.9-10.5,11.86-19.08,14.58-30.09
	c2.03-8.22,2.46-17.36,1.56-25.78"/>
<path class="st1" d="M201.86,113.19c0,0-9.38-8.75-5.21-18.97"/>
<path class="st1" d="M196.04,122.43c0,0,15.84-1.49,19.82-9.61"/>
<path class="st1" d="M204.32,109.11c0,0,11.79-5.06,12.31-18.38"/>
<path class="st0" d="M187.27,158.27c0,0-12.73-22.55-1.15-44.94c11.58-22.39,22.05-37.53,22.05-37.53
	c3.43,5.21,7.14,10.8,9.52,16.57c5.36,13.01,0.3,29.76-8.93,39.78C191.72,150.64,187.42,147.29,187.27,158.27z"/>
<path class="st1" d="M192.09,131.17c0,0-7.22-4.78-7.8-13.16"/>
<path class="st1" d="M190.56,136.62c4.55-0.91,9.28-1.16,13.59-3.02"/>
<path class="st1" d="M135.69,338.95c7.39,1.58,15.53,2.05,23.01,1.02c10.02-1.38,18.36-7.64,28.05-10.13
	c7.33-1.89,15.11-2.66,22.68-2.63"/>
<path class="st1" d="M153.1,330.45c9.46-2.75,16.34,6.39,16.34,6.39"/>
<path class="st1" d="M167.82,349.22c7.57-2.78,10.37-16.68,10.37-16.68"/>
<path class="st1" d="M148.15,347.84c11.87,0.78,17.45-9.21,17.45-9.21"/>
<path class="st0" d="M185.62,344.71c-9.74,7.25-25.07,10.19-36.11,4.22c-4.9-2.65-9.51-6.46-13.81-9.98c0,0,14.41-7.88,35.34-16.07
	c20.94-8.19,39.76,5.2,39.76,5.2C201.04,327.2,203.61,331.32,185.62,344.71z"/>
<path class="st1" d="M175.36,321.69c7.38,1.3,10.95,8.15,10.95,8.15"/>
<path class="st1" d="M187.33,340.76c2.05-3.65,2.72-7.82,3.95-11.77"/>
</svg>
