<?xml version="1.0" encoding="utf-8"?>
<!-- Generator: Adobe Illustrator 23.0.0, SVG Export Plug-In . SVG Version: 6.00 Build 0)  -->
<svg version="1.1" id="Layer_1" xmlns="http://www.w3.org/2000/svg" xmlns:xlink="http://www.w3.org/1999/xlink" x="0px" y="0px"
	 viewBox="0 0 90 136" style="enable-background:new 0 0 90 136;" xml:space="preserve">
<style type="text/css">
	.st0{fill-rule:evenodd;clip-rule:evenodd;fill:none;stroke:#000000;stroke-width:4;stroke-miterlimit:10;}
	.st1{fill-rule:evenodd;clip-rule:evenodd;}
</style>
<path class="st0" d="M43.17,17.5c11.05,0,20,8.95,20,20v26c0,11.05-8.95,20-20,20s-20-8.95-20-20v-26
	C23.17,26.45,32.12,17.5,43.17,17.5z"/>
<g>
	<path d="M44.17,37.5v6h-2v-6H44.17 M44.17,34.5h-2c-1.66,0-3,1.34-3,3v6c0,1.66,1.34,3,3,3h2c1.66,0,3-1.34,3-3v-6
		C47.17,35.84,45.83,34.5,44.17,34.5L44.17,34.5z"/>
</g>
<path class="st1" d="M43.17,112.99l17.16-16.5l2.86,2.75l-20.02,19.25L23.15,99.23l2.86-2.75L43.17,112.99z"/>
</svg>
